<svg width="27" height="26" viewBox="0 0 27 26" fill="none" xmlns="http://www.w3.org/2000/svg">
<rect x="1.38379" y="0.5" width="25" height="25" rx="12.5" fill="white"/>
<path d="M20.3167 18.25C19.3648 16.6044 17.898 15.4244 16.1861 14.865C17.0328 14.3609 17.6907 13.5928 18.0587 12.6786C18.4267 11.7644 18.4844 10.7547 18.223 9.80459C17.9616 8.85444 17.3955 8.01636 16.6117 7.41907C15.8279 6.82178 14.8697 6.49829 13.8842 6.49829C12.8987 6.49829 11.9405 6.82178 11.1567 7.41907C10.3729 8.01636 9.80682 8.85444 9.54542 9.80459C9.28401 10.7547 9.34172 11.7644 9.70969 12.6786C10.0777 13.5928 10.7356 14.3609 11.5823 14.865C9.87045 15.4237 8.40358 16.6037 7.4517 18.25C7.4168 18.3069 7.39364 18.3702 7.38361 18.4363C7.37357 18.5023 7.37686 18.5696 7.39328 18.6343C7.4097 18.6991 7.43891 18.7598 7.4792 18.8131C7.51948 18.8663 7.57003 18.911 7.62784 18.9444C7.68566 18.9778 7.74958 18.9992 7.81583 19.0075C7.88208 19.0158 7.94933 19.0108 8.01359 18.9926C8.07786 18.9745 8.13784 18.9437 8.19001 18.902C8.24217 18.8604 8.28547 18.8087 8.31733 18.75C9.49483 16.715 11.5761 15.5 13.8842 15.5C16.1923 15.5 18.2736 16.715 19.4511 18.75C19.4829 18.8087 19.5262 18.8604 19.5784 18.902C19.6306 18.9437 19.6906 18.9745 19.7548 18.9926C19.8191 19.0108 19.8863 19.0158 19.9526 19.0075C20.0188 18.9992 20.0827 18.9778 20.1406 18.9444C20.1984 18.911 20.2489 18.8663 20.2892 18.8131C20.3295 18.7598 20.3587 18.6991 20.3751 18.6343C20.3915 18.5696 20.3948 18.5023 20.3848 18.4363C20.3748 18.3702 20.3516 18.3069 20.3167 18.25ZM10.3842 11C10.3842 10.3078 10.5895 9.63107 10.9741 9.0555C11.3586 8.47992 11.9053 8.03132 12.5448 7.76641C13.1844 7.50151 13.8881 7.43219 14.567 7.56724C15.246 7.70229 15.8696 8.03563 16.3591 8.52512C16.8486 9.0146 17.1819 9.63824 17.317 10.3172C17.452 10.9961 17.3827 11.6998 17.1178 12.3394C16.8529 12.9789 16.4043 13.5256 15.8287 13.9101C15.2531 14.2947 14.5764 14.5 13.8842 14.5C12.9563 14.499 12.0666 14.1299 11.4104 13.4738C10.7543 12.8176 10.3852 11.9279 10.3842 11Z" fill="black"/>
<rect x="1.38379" y="0.5" width="25" height="25" rx="12.5" stroke="#28A76C"/>
</svg>
